# xmcd
#
# Track frame offsets: 
#        150
#        16845
#        34791
#        55110
#        74349
#        89969
#        106469
#        124679
#        144589
#        162037
#        178108
#        197680
#        212836
#        229663
#        246565
#        263968
#        282619
#        299089
#
# Disc length: 4176 seconds
#
# Revision: 0
# Processed by: cddbd v1.5.2PL0 Copyright (c) Steve Scherf et al.
# Submitted via: ExactAudioCopyFreeDBPlugin 1.0
#
DISCID=1f104e12
DTITLE=หลง ลงลาย - รวมสุดยอด 55 บทเพลง ตำนานรักสะท้านโลกา แผ่น 2
DYEAR=1900
DGENRE=
TTITLE0=อดีต
TTITLE1=เธอ
TTITLE2=รอ
TTITLE3=ชายแปลกหน้า
TTITLE4=ช่วยตัวเอง
TTITLE5=โลก
TTITLE6=โลกสวย
TTITLE7=จิ๊กโก๋อกหัก
TTITLE8=ปลูกต้นรัก
TTITLE9=ชายเสียเชิง
TTITLE10=คนบ้ากีตาร์โปร่ง
TTITLE11=ลูกใครหว่า
TTITLE12=หลวงจิ้ม
TTITLE13=กล้ากลัวเมีย
TTITLE14=ใจไม่จำ
TTITLE15=อกหักจากสาวโรงงาน
TTITLE16=เคียงข้างคนจน
TTITLE17=วันเกิด
EXTD=
EXTT0=
EXTT1=
EXTT2=
EXTT3=
EXTT4=
EXTT5=
EXTT6=
EXTT7=
EXTT8=
EXTT9=
EXTT10=
EXTT11=
EXTT12=
EXTT13=
EXTT14=
EXTT15=
EXTT16=
EXTT17=
PLAYORDER=
